<?xml version="1.0" encoding="UTF-8"?>
<svg version="1.1" xmlns="http://www.w3.org/2000/svg" width="500" height="500">
<path d="M0 0 C165 0 330 0 500 0 C500 165 500 330 500 500 C335 500 170 500 0 500 C0 335 0 170 0 0 Z " fill="#FEFEFE" transform="translate(0,0)"/>
<path d="M0 0 C3.39731908 3.21670211 6.73096176 7.06494985 7.17047119 11.85974121 C7.23179507 14.21650966 7.22454529 16.56448539 7.1953125 18.921875 C7.1924826 19.78186096 7.18965271 20.64184692 7.18673706 21.52789307 C7.1755615 24.26873821 7.15046179 27.00925398 7.125 29.75 C7.1149668 31.61067236 7.10584155 33.47134985 7.09765625 35.33203125 C7.07733414 39.88824915 7.03818081 44.44375682 7 49 C15.91 49 24.82 49 34 49 C33.95359375 46.26589844 33.9071875 43.53179687 33.859375 40.71484375 C33.82813056 38.05055597 33.80387068 35.38628903 33.78027344 32.72192383 C33.76022639 30.87808006 33.7329812 29.03429932 33.69824219 27.19067383 C33.64941792 24.5319051 33.62696228 21.87398085 33.609375 19.21484375 C33.58872986 18.39789536 33.56808472 17.58094696 33.54681396 16.73924255 C33.54459127 10.99880013 34.73025134 7.73739621 38 3 C40.03515625 1.0390625 40.03515625 1.0390625 42.0625 -0.375 C43.06990234 -1.09816406 43.06990234 -1.09816406 44.09765625 -1.8359375 C48.18099549 -4.33457219 52.34961434 -4.68111709 57 -4 C64.07787273 -1.60126806 68.29281657 1.54232564 72 8 C73.29487016 11.88461047 73.1232604 15.55883956 73.09765625 19.60546875 C73.09553383 20.86427605 73.09553383 20.86427605 73.09336853 22.14851379 C73.08777215 24.82821216 73.07522035 27.5078269 73.0625 30.1875 C73.05748453 32.00455608 73.05292171 33.82161348 73.04882812 35.63867188 C73.03780391 40.09248013 73.02054178 44.54622589 73 49 C74.02480469 48.95359375 75.04960937 48.9071875 76.10546875 48.859375 C77.46611656 48.82183989 78.82679605 48.78544159 80.1875 48.75 C80.86103516 48.71648437 81.53457031 48.68296875 82.22851562 48.6484375 C85.51357777 48.58433873 87.93435314 48.97142386 90.94897461 50.28369141 C94.28981179 54.70818307 93.69294284 59.31770967 93.62890625 64.7109375 C93.63131821 65.87066071 93.63373016 67.03038391 93.63621521 68.22525024 C93.63523517 70.68486947 93.62180449 73.14451033 93.59692383 75.60400391 C93.56294152 79.32663278 93.57617767 83.04684328 93.59570312 86.76953125 C93.58551326 104.70656416 92.66307521 120.42521204 79.8984375 134.28125 C73.19270779 140.63155234 65.72081225 144.19823398 57 147 C56.99742187 148.12277344 56.99484375 149.24554688 56.9921875 150.40234375 C56.71580974 164.79648292 56.71580974 164.79648292 51.765625 171.3359375 C50 173 50 173 47.31640625 174.12109375 C44.83092337 175.72805819 44.83092337 175.72805819 44.60009766 178.01464844 C44.50663807 180.58917609 44.56514469 183.1142738 44.6875 185.6875 C44.71005859 186.58017578 44.73261719 187.47285156 44.75585938 188.39257812 C44.81479426 190.59674272 44.89699182 192.79752672 45 195 C45.55945313 194.38253906 46.11890625 193.76507813 46.6953125 193.12890625 C55.74753681 183.5673124 66.30844017 175.9698718 79 172 C79.90878906 171.70351563 80.81757813 171.40703125 81.75390625 171.1015625 C89.56778566 168.8333525 97.91155244 167.76534514 106 169 C108.40234375 170.609375 108.40234375 170.609375 110 173 C112.84255461 188.42821017 106.2563891 205.28383445 98 218 C86.58497584 233.86813798 72.01345901 244.31001344 53 249 C49.8471094 249.32529824 47.16892566 249.27797593 44 249 C44.02320313 249.95261719 44.04640625 250.90523437 44.0703125 251.88671875 C44.08835937 253.14097656 44.10640625 254.39523437 44.125 255.6875 C44.14820313 256.92886719 44.17140625 258.17023438 44.1953125 259.44921875 C44.00749678 262.86370861 43.62390266 265.01567557 42 268 C38.20945557 270.52702962 35.14697214 270.30590589 30.75390625 270.30078125 C29.94638412 270.30506638 29.138862 270.3093515 28.30686951 270.31376648 C26.59969012 270.31950699 24.89248626 270.32001208 23.18530273 270.31567383 C20.5755837 270.31251583 17.96700058 270.33596851 15.35742188 270.36132812 C13.6979181 270.36360138 12.03841127 270.36430449 10.37890625 270.36328125 C9.59963272 270.372491 8.82035919 270.38170074 8.01747131 270.39118958 C4.80415649 270.36380104 2.38801473 270.19747551 -0.49926758 268.72802734 C-2.31687604 266.63513118 -2.47304558 265.72876552 -2.390625 262.98828125 C-2.37773437 262.23095703 -2.36484375 261.47363281 -2.3515625 260.69335938 C-2.31804687 259.90767578 -2.28453125 259.12199219 -2.25 258.3125 C-2.23195313 257.51521484 -2.21390625 256.71792969 -2.1953125 255.89648438 C-2.14822247 253.93047551 -2.07647899 251.96508506 -2 250 C-3.85625 249.8453125 -3.85625 249.8453125 -5.75 249.6875 C-24.51158323 247.46995673 -39.18827702 239.69217199 -52 226 C-52.68578125 225.27167969 -53.3715625 224.54335938 -54.078125 223.79296875 C-59.76726991 217.09156607 -63.42601486 208.96647288 -67 201 C-67.38671875 200.14664063 -67.7734375 199.29328125 -68.171875 198.4140625 C-70.27127117 192.76945959 -70.29507684 187.01955054 -70.375 181.0625 C-70.38917969 180.22033936 -70.40335938 179.37817871 -70.41796875 178.51049805 C-70.41152344 177.71426025 -70.40507812 176.91802246 -70.3984375 176.09765625 C-70.39505371 175.38101807 -70.39166992 174.66437988 -70.38818359 173.92602539 C-69.88548984 171.43184234 -68.9947705 170.5389412 -67 169 C-51.14931386 166.50789496 -34.01600545 172.16227735 -21 181 C-14.57220367 185.733767 -9.00464514 190.74419357 -4 197 C-3.67 190.07 -3.34 183.14 -3 176 C-4.65 175.34 -6.3 174.68 -8 174 C-9.73046875 172.484375 -9.73046875 172.484375 -11.1875 170.75 C-11.67605469 170.18796875 -12.16460937 169.6259375 -12.66796875 169.046875 C-15.80351577 164.22861506 -16.30599326 159.26078582 -16.625 153.625 C-16.69976562 152.37976563 -16.77453125 151.13453125 -16.8515625 149.8515625 C-16.90054688 148.91054687 -16.94953125 147.96953125 -17 147 C-17.61746094 146.78085938 -18.23492187 146.56171875 -18.87109375 146.3359375 C-31.5435379 141.59100408 -41.68155584 133.9311153 -47.88743591 121.61705017 C-51.73512103 112.56625921 -52.46001279 102.99370481 -52.43359375 93.27734375 C-52.4388356 92.12883438 -52.44407745 90.98032501 -52.44947815 89.79701233 C-52.45584549 87.39633996 -52.45463088 84.99563616 -52.44604492 82.5949707 C-52.43744737 78.91497409 -52.46651161 75.23648793 -52.49804688 71.55664062 C-52.49965698 69.21354213 -52.49908502 66.87044089 -52.49609375 64.52734375 C-52.50732773 63.4294603 -52.51856171 62.33157684 -52.53013611 61.20042419 C-52.51606468 59.67216759 -52.51606468 59.67216759 -52.50170898 58.11303711 C-52.50154282 57.21959091 -52.50137665 56.32614471 -52.50120544 55.40562439 C-51.83016269 52.18483572 -50.57883552 50.98775268 -48 49 C-45.10550051 48.7093876 -42.62050065 48.61813955 -39.75 48.75 C-39.00492188 48.76804688 -38.25984375 48.78609375 -37.4921875 48.8046875 C-35.66090299 48.85164351 -33.83028351 48.92338348 -32 49 C-32.0314209 47.86570557 -32.0628418 46.73141113 -32.09521484 45.56274414 C-32.20452834 41.31938535 -32.27295305 37.07614866 -32.32958984 32.83178711 C-32.35960256 31.00149548 -32.40042728 29.17134573 -32.45263672 27.34155273 C-32.96294976 8.98529253 -32.96294976 8.98529253 -27.60449219 2.50756836 C-19.43060382 -5.17255347 -9.38476506 -6.55124927 0 0 Z " fill="#0EC359" transform="translate(230,97)"/>
<path d="M0 0 C39.27 0 78.54 0 119 0 C119 52.26785714 119 52.26785714 109.25 62.91015625 C99.90630033 71.78290332 89.65564347 72.61921684 77.28125 72.56640625 C75.77249776 72.571654 74.2637488 72.57793464 72.75500488 72.58518982 C69.60815888 72.59554098 66.46176658 72.59110879 63.31494141 72.57641602 C59.30697694 72.55922231 55.30044549 72.58275669 51.29264069 72.61790562 C48.18164802 72.63999345 45.07099243 72.63841116 41.95994568 72.6301403 C40.48333665 72.62932725 39.00670124 72.63606553 37.53016663 72.65091133 C28.61114457 72.72687372 21.62604396 71.97816637 14 67 C13.0925 66.4225 12.185 65.845 11.25 65.25 C4.76279472 58.76279472 2.70042651 53.00142171 0 44 C0 29.48 0 14.96 0 0 Z " fill="#F8FDFA" transform="translate(191,159)"/>
<path d="M0 0 C1.57765388 -0.01925285 1.57765388 -0.01925285 3.18717957 -0.03889465 C4.31948502 -0.04628159 5.45179047 -0.05366852 6.6184082 -0.0612793 C7.78998978 -0.06935104 8.96157135 -0.07742279 10.1686554 -0.08573914 C12.64920579 -0.09956769 15.12977511 -0.11029533 17.61035156 -0.11816406 C21.38749666 -0.13535381 25.16376117 -0.1792503 28.94067383 -0.22338867 C31.35407887 -0.23351813 33.76749133 -0.24203344 36.1809082 -0.2487793 C37.3030925 -0.26628738 38.42527679 -0.28379547 39.58146667 -0.30183411 C47.91717889 -0.27899008 54.30037833 1.4526063 61.04418945 6.42700195 C65.85485603 11.34954449 67.94839451 15.74596073 68.16918945 22.67700195 C67.81084714 30.78449683 65.5936232 35.84154184 59.9387207 41.6340332 C52.69746864 46.69650146 45.29241004 46.63180804 36.76293945 46.6105957 C35.52805786 46.61583755 34.29317627 46.62107941 33.02087402 46.6264801 C30.41879018 46.63288275 27.81667732 46.6315862 25.21459961 46.62304688 C21.24450992 46.61452946 17.27585629 46.64333841 13.3059082 46.67504883 C10.77075238 46.67666089 8.23559403 46.67608322 5.70043945 46.6730957 C3.9298114 46.68994667 3.9298114 46.68994667 2.12341309 46.70713806 C-5.6822846 46.64145122 -11.12754832 45.66695676 -17.2565918 40.5012207 C-21.76269739 34.93172736 -24.90468608 29.66565799 -24.5456543 22.2121582 C-23.51015917 14.61366581 -19.73228221 9.41180041 -14.26831055 4.17700195 C-9.60595343 0.81576775 -5.67022713 0.06045744 0 0 Z " fill="#0CC258" transform="translate(228.268310546875,171.822998046875)"/>
<path d="M0 0 C4.10065545 2.34855721 7.04705003 5.59714146 8.71875 9.984375 C8.92242124 12.60947093 9.0228544 15.12533968 9.01953125 17.75 C9.02381638 18.50222839 9.0281015 19.25445679 9.03251648 20.02947998 C9.03825025 21.61974077 9.03876706 23.21002778 9.03442383 24.80029297 C9.03127868 27.21238008 9.05468156 29.62322197 9.08007812 32.03515625 C9.08235297 33.58593597 9.08305376 35.13671895 9.08203125 36.6875 C9.091241 37.39924377 9.10045074 38.11098755 9.10993958 38.84429932 C9.06189009 44.14551263 7.89518128 48.13655772 5.71875 52.984375 C1.65492261 56.94400169 -1.60068296 58.984375 -7.28125 58.984375 C-7.24 60.098125 -7.19875 61.211875 -7.15625 62.359375 C-7.28125 65.984375 -7.28125 65.984375 -9.28125 67.984375 C-11.90625 67.609375 -11.90625 67.609375 -14.28125 66.984375 C-14.28125 64.344375 -14.28125 61.704375 -14.28125 58.984375 C-15.291875 58.943125 -16.3025 58.901875 -17.34375 58.859375 C-22.05306593 58.18935038 -25.27186848 55.57339992 -28.28125 51.984375 C-30.51619012 47.62652183 -30.60316983 43.44495559 -30.6171875 38.6484375 C-30.6238443 37.85086029 -30.6305011 37.05328308 -30.63735962 36.23153687 C-30.64745615 34.54891251 -30.65217757 32.86624836 -30.65185547 31.18359375 C-30.65622449 28.62432095 -30.69256177 26.06678012 -30.73046875 23.5078125 C-30.73633862 21.86719335 -30.74030687 20.22656607 -30.7421875 18.5859375 C-30.75655853 17.82842194 -30.77092957 17.07090637 -30.78573608 16.29043579 C-30.7387066 10.7561203 -29.45020091 7.54282753 -26.28125 2.984375 C-18.49433306 -3.05445855 -9.08421234 -3.94642012 0 0 Z " fill="#0FC35A" transform="translate(306.28125,390.015625)"/>
<path d="M0 0 C4.01478775 0.47232797 5.26439321 1.61199021 8.1875 4.375 C9.5886616 6.62037686 10.79503727 8.75043142 11.95703125 11.109375 C12.44583015 12.06641327 12.44583015 12.06641327 12.94450378 13.04278564 C13.97407743 15.06479798 14.98718401 17.09455083 16 19.125 C16.69879465 20.50445141 17.398654 21.88336403 18.09960938 23.26171875 C19.80795171 26.62670512 21.50158338 29.99872596 23.1875 33.375 C23.20731934 32.4463916 23.22713867 31.5177832 23.24755859 30.56103516 C23.32558613 27.1204948 23.41227462 23.68040109 23.50488281 20.24023438 C23.54319998 18.75041111 23.57804808 17.26049446 23.609375 15.77050781 C23.65496729 13.63051952 23.71296874 11.49117564 23.7734375 9.3515625 C23.8048584 8.06330566 23.8362793 6.77504883 23.86865234 5.44775391 C24.1875 2.375 24.1875 2.375 26.1875 0.375 C32.51008065 0.03629032 32.51008065 0.03629032 35.1875 1.375 C35.25693899 8.90264817 35.31028005 16.43026324 35.34293652 23.95815849 C35.35860825 27.45350309 35.37987331 30.94862896 35.41381836 34.44384766 C35.45257941 38.45998258 35.46719664 42.47588691 35.48046875 46.4921875 C35.49595261 47.75054413 35.51143646 49.00890076 35.52738953 50.3053894 C35.52761612 51.46644196 35.52784271 52.62749451 35.52807617 53.82373047 C35.53473801 54.84965302 35.54139984 55.87557556 35.54826355 56.93258667 C35.42921158 57.73858307 35.31015961 58.54457947 35.1875 59.375 C32.1875 61.375 32.1875 61.375 28.8125 61.5 C24.72129525 60.23031577 24.72129525 60.23031577 22.8515625 57.05078125 C22.4272998 56.32987305 22.00303711 55.60896484 21.56591797 54.86621094 C18.93078507 50.10374262 16.42128705 45.28027599 13.9375 40.4375 C12.8714433 38.365035 11.80382233 36.29337363 10.734375 34.22265625 C10.26870117 33.31523682 9.80302734 32.40781738 9.32324219 31.47290039 C8.35643227 29.4488691 8.35643227 29.4488691 7.1875 28.375 C7.17291748 29.3036084 7.15833496 30.2322168 7.14331055 31.18896484 C7.08230828 34.62966496 7.0081695 38.06955652 6.92504883 41.50976562 C6.89176537 42.99956572 6.86374403 44.48949295 6.84106445 45.97949219 C6.80757929 48.11969252 6.75527211 50.25872419 6.69921875 52.3984375 C6.67303467 53.68669434 6.64685059 54.97495117 6.61987305 56.30224609 C6.47718994 57.31625488 6.33450684 58.33026367 6.1875 59.375 C2.73504176 61.67663882 1.24011287 61.71990322 -2.8125 61.375 C-5.43664755 58.75085245 -5.06548097 57.60518938 -5.07128906 53.94726562 C-5.07759338 52.81268921 -5.08389771 51.67811279 -5.09039307 50.50915527 C-5.0863446 49.27894653 -5.08229614 48.04873779 -5.078125 46.78125 C-5.08003845 45.52364868 -5.0819519 44.26604736 -5.08392334 42.97033691 C-5.08528649 40.30707125 -5.08258006 37.6441707 -5.07324219 34.98095703 C-5.06184752 31.56428606 -5.06840748 28.14792928 -5.08038712 24.73126984 C-5.08934454 21.47708521 -5.08307628 18.22293873 -5.078125 14.96875 C-5.08217346 13.73854126 -5.08622192 12.50833252 -5.09039307 11.24084473 C-5.08408875 10.10626831 -5.07778442 8.97169189 -5.07128906 7.80273438 C-5.06969788 6.80060913 -5.06810669 5.79848389 -5.06646729 4.76599121 C-4.67979498 1.12564012 -3.54952529 0.47327004 0 0 Z " fill="#0FC35B" transform="translate(190.8125,387.625)"/>
<path d="M0 0 C6.27 0 12.54 0 19 0 C19 25.74 19 51.48 19 78 C12.73 78 6.46 78 0 78 C0 52.26 0 26.52 0 0 Z " fill="#FFFFFF" transform="translate(241,275)"/>
<path d="M0 0 C2.57421875 2.5390625 2.57421875 2.5390625 2.63671875 6.2265625 C1.57421875 9.5390625 1.57421875 9.5390625 -1.42578125 11.5390625 C-6.21675036 12.04337504 -9.0865894 11.00014498 -13.30078125 8.7890625 C-31.19516397 0.24672143 -52.37571945 -1.63227462 -71.42578125 4.5390625 C-81.08002316 7.99337021 -81.08002316 7.99337021 -89.42578125 13.5390625 C-94.62755509 13.99139066 -94.62755509 13.99139066 -97.30078125 12.4765625 C-99.26218544 9.09858862 -99.25656724 7.37345939 -98.42578125 3.5390625 C-76.57401437 -19.46017159 -24.00882978 -18.51024876 0 0 Z " fill="#0FC35A" transform="translate(298.42578125,43.4609375)"/>
<path d="M0 0 C1.63671875 1.1484375 1.63671875 1.1484375 3.63671875 3.1484375 C3.98162197 7.20105037 3.93835757 8.69597926 1.63671875 12.1484375 C-5.43502084 14.60817301 -10.8860612 11.07478485 -17.36328125 8.1484375 C-28.59807414 3.77935138 -40.46341872 5.82355907 -51.36328125 10.1484375 C-52.87579191 10.87287626 -54.37802337 11.6196506 -55.86328125 12.3984375 C-60.90174279 14.91766827 -60.90174279 14.91766827 -64.36328125 14.1484375 C-67.0105911 12.2166168 -68.13780375 10.92735977 -69.05078125 7.7734375 C-67.91565149 3.4393057 -65.05043644 1.5032593 -61.36328125 -0.8515625 C-41.94038604 -10.52315464 -19.0299441 -11.38171895 0 0 Z " fill="#0FC35A" transform="translate(282.36328125,64.8515625)"/>
<path d="M0 0 C3.5 0.25 3.5 0.25 5.5 2.25 C5.74050903 4.38870239 5.74050903 4.38870239 5.72705078 7.06689453 C5.72682419 8.56822433 5.72682419 8.56822433 5.72659302 10.09988403 C5.71627045 11.18325043 5.70594788 12.26661682 5.6953125 13.3828125 C5.6924826 14.48978485 5.68965271 15.5967572 5.68673706 16.73727417 C5.67551519 20.28329137 5.65040691 23.82905875 5.625 27.375 C5.6149728 29.77473594 5.6058465 32.17447583 5.59765625 34.57421875 C5.57726836 40.46632022 5.53812299 46.35787948 5.5 52.25 C13.09 52.25 20.68 52.25 28.5 52.25 C29.5 58.25 29.5 58.25 27.5 61.25 C24.45898438 61.62231445 24.45898438 61.62231445 20.59375 61.61328125 C19.57299377 61.61402901 19.57299377 61.61402901 18.53161621 61.61479187 C17.0924996 61.61245082 15.65337895 61.60272029 14.21435547 61.58618164 C12.00841763 61.56259002 9.80368814 61.56561947 7.59765625 61.57226562 C-3.2209175 61.5290825 -3.2209175 61.5290825 -5.5 59.25 C-5.75396729 56.85900879 -5.75396729 56.85900879 -5.75878906 53.82226562 C-5.76509338 52.68768921 -5.77139771 51.55311279 -5.77789307 50.38415527 C-5.7738446 49.15394653 -5.76979614 47.92373779 -5.765625 46.65625 C-5.76753845 45.39864868 -5.7694519 44.14104736 -5.77142334 42.84533691 C-5.77278649 40.18207125 -5.77008006 37.5191707 -5.76074219 34.85595703 C-5.74934752 31.43928606 -5.75590748 28.02292928 -5.76788712 24.60626984 C-5.77684454 21.35208521 -5.77057628 18.09793873 -5.765625 14.84375 C-5.76967346 13.61354126 -5.77372192 12.38333252 -5.77789307 11.11584473 C-5.77158875 9.98126831 -5.76528442 8.84669189 -5.75878906 7.67773438 C-5.75719788 6.67560913 -5.75560669 5.67348389 -5.75396729 4.64099121 C-5.32030203 0.55822197 -3.94852132 0.28203724 0 0 Z " fill="#0FC35A" transform="translate(241.5,387.75)"/>
<path d="M0 0 C14.85 0 29.7 0 45 0 C45 4.29 45 8.58 45 13 C41.60785621 16.39214379 40.39577548 16.36035237 35.79089355 16.4168396 C34.54862 16.40773056 34.54862 16.40773056 33.28125 16.3984375 C32.42696411 16.40130768 31.57267822 16.40417786 30.69250488 16.40713501 C28.88695615 16.40917581 27.08138531 16.40364483 25.27587891 16.39111328 C22.51023988 16.37505944 19.74606225 16.39096099 16.98046875 16.41015625 C15.22655927 16.40817382 13.4726507 16.40433015 11.71875 16.3984375 C10.89056763 16.40451019 10.06238525 16.41058289 9.20910645 16.4168396 C3.34490453 16.34490453 3.34490453 16.34490453 0 13 C0 8.71 0 4.42 0 0 Z " fill="#FEFEFE" transform="translate(228,245)"/>
<path d="M0 0 C1.14662109 0.00193359 1.14662109 0.00193359 2.31640625 0.00390625 C4.93857711 0.53993013 5.81402324 1.34030357 7.4375 3.4375 C9.13275506 8.52326517 8.62342404 13.93876645 8.62280273 19.26147461 C8.62498854 21.36397565 8.64315545 23.46595117 8.66210938 25.56835938 C8.66504376 26.90885238 8.66702825 28.24934787 8.66796875 29.58984375 C8.67207764 30.80663818 8.67618652 32.02343262 8.68041992 33.27709961 C8.44837982 36.29595294 8.19094434 37.99435539 6.4375 40.4375 C4.9525 40.9325 4.9525 40.9325 3.4375 41.4375 C3.1075 39.4575 2.7775 37.4775 2.4375 35.4375 C0.7875 35.4375 -0.8625 35.4375 -2.5625 35.4375 C-2.8925 37.4175 -3.2225 39.3975 -3.5625 41.4375 C-7.4375 39.6875 -7.4375 39.6875 -8.5625 37.4375 C-8.69742591 35.00362273 -8.77504153 32.59959751 -8.80078125 30.1640625 C-8.808853 29.44390961 -8.81692474 28.72375671 -8.82524109 27.98178101 C-8.83907614 26.45695398 -8.8498009 24.93209606 -8.85766602 23.40722656 C-8.8748841 21.07817799 -8.91877204 18.7505475 -8.96289062 16.421875 C-8.97301744 14.9401146 -8.98153358 13.45834214 -8.98828125 11.9765625 C-9.00578934 11.28164703 -9.02329742 10.58673157 -9.04133606 9.87075806 C-9.0260819 6.46112456 -8.7884886 4.72993347 -6.67675781 1.99731445 C-4.22487861 0.18841651 -3.01582221 -0.07654371 0 0 Z " fill="#FCFEFD" transform="translate(295.5625,397.5625)"/>
<path d="M0 0 C1.70043945 1.01293945 1.70043945 1.01293945 3 3 C3.26159322 5.79989129 3.34904338 8.37227929 3.29296875 11.16796875 C3.28872391 11.96278152 3.28447906 12.7575943 3.28010559 13.57649231 C3.2633193 16.11384021 3.22566824 18.65039238 3.1875 21.1875 C3.17245305 22.90819165 3.15876466 24.62889576 3.14648438 26.34960938 C3.11341607 30.56671262 3.06163495 34.78322142 3 39 C-1.29 39 -5.58 39 -10 39 C-10.07413521 33.92801112 -10.12859451 28.85633732 -10.16479492 23.78393555 C-10.17988516 22.05829373 -10.20035975 20.33269028 -10.22631836 18.60717773 C-10.26269209 16.12734512 -10.27972359 13.64801936 -10.29296875 11.16796875 C-10.30845261 10.39599655 -10.32393646 9.62402435 -10.33988953 8.82865906 C-10.34155831 3.52225119 -10.34155831 3.52225119 -8.70043945 1.01293945 C-5.80145195 -0.71396639 -3.2691608 -0.35026723 0 0 Z " fill="#FEFEFE" transform="translate(221,107)"/>
<path d="M0 0 C2.74202999 2.45818166 2.99702249 3.96794111 3.34057617 7.66699219 C3.34010383 9.12703929 3.32330994 10.58714311 3.29296875 12.046875 C3.28872391 12.81807678 3.28447906 13.58927856 3.28010559 14.3838501 C3.26335383 16.83959315 3.22570939 19.29450629 3.1875 21.75 C3.17244857 23.41795687 3.15876097 25.08592665 3.14648438 26.75390625 C3.11346194 30.83625578 3.06170484 34.91798732 3 39 C-1.29 39 -5.58 39 -10 39 C-10.07413521 33.92801112 -10.12859451 28.85633732 -10.16479492 23.78393555 C-10.17988516 22.05829373 -10.20035975 20.33269028 -10.22631836 18.60717773 C-10.26269209 16.12734512 -10.27972359 13.64801936 -10.29296875 11.16796875 C-10.30845261 10.39599655 -10.32393646 9.62402435 -10.33988953 8.82865906 C-10.34155864 3.52122502 -10.34155864 3.52122502 -8.70043945 1.0168457 C-5.76494128 -0.7385527 -3.3080158 -0.41350197 0 0 Z " fill="#FAFDFB" transform="translate(287,107)"/>
</svg>
