<?xml version="1.0" encoding="UTF-8"?>
<svg version="1.1" xmlns="http://www.w3.org/2000/svg" width="500" height="500">
<path d="M0 0 C4.84700433 4.70680173 7.82990851 8.09142586 8.12939453 14.97338867 C8.13108643 16.67845581 8.13108643 16.67845581 8.1328125 18.41796875 C8.13410156 19.67287109 8.13539063 20.92777344 8.13671875 22.22070312 C8.13285156 23.52974609 8.12898438 24.83878906 8.125 26.1875 C8.12886719 27.47720703 8.13273437 28.76691406 8.13671875 30.09570312 C8.13542969 31.35705078 8.13414062 32.61839844 8.1328125 33.91796875 C8.13168457 35.06031982 8.13055664 36.2026709 8.12939453 37.37963867 C7.97853616 41.60054205 7.46641842 45.80223423 7 50 C15.91 50 24.82 50 34 50 C33.505 48.02 33.505 48.02 33 46 C32.77685453 41.32983577 32.77179984 36.65843325 32.75976562 31.98364258 C32.75007663 29.70551812 32.71903843 27.428303 32.6875 25.15039062 C32.68096725 23.68750531 32.67571785 22.2246136 32.671875 20.76171875 C32.6595282 20.08856125 32.6471814 19.41540375 32.63446045 18.72184753 C32.66695585 11.71358216 35.09149847 6.04484879 40 1 C45.32627964 -2.83492134 50.37665491 -4.552768 57 -4 C63.13128827 -2.19402407 68.36023255 1.05677565 71.84106445 6.49902344 C75.90386004 15.26651406 73.99218759 27.41370138 73.5625 36.8125 C73.51029297 38.08931641 73.45808594 39.36613281 73.40429688 40.68164062 C73.27631485 43.7881133 73.14145353 46.89411667 73 50 C73.66 49.67 74.32 49.34 75 49 C76.93460941 48.8771223 78.87402904 48.82445112 80.8125 48.8125 C81.85019531 48.79832031 82.88789063 48.78414062 83.95703125 48.76953125 C87.1231846 49.00932977 89.22428838 49.46439689 92 51 C93.81091285 53.89562944 94.25460162 56.12874576 94.2746582 59.51464844 C94.28419022 60.40367859 94.29372223 61.29270874 94.30354309 62.2086792 C94.30217598 63.64452362 94.30217598 63.64452362 94.30078125 65.109375 C94.30506638 66.10898254 94.3093515 67.10859009 94.31376648 68.13848877 C94.31951128 70.26012415 94.32000895 72.38177924 94.31567383 74.50341797 C94.31255216 77.69664884 94.33583667 80.88891755 94.36132812 84.08203125 C94.42258945 103.40785446 93.39218039 122.15071989 79.3359375 136.9609375 C72.65183087 142.795559 65.55950238 146.09071445 57 148 C57.08701172 149.7015625 57.08701172 149.7015625 57.17578125 151.4375 C57.69938899 165.92665764 57.69938899 165.92665764 53.6796875 171.45703125 C52 173 52 173 48.84375 174.65234375 C45.8974198 176.61340241 45.8974198 176.61340241 45.51611328 178.91137695 C45.40903387 181.21768301 45.47599987 183.44622878 45.625 185.75 C45.65207031 186.54277344 45.67914063 187.33554687 45.70703125 188.15234375 C45.77752727 190.10273366 45.88514501 192.05171901 46 194 C46.46148437 193.50371094 46.92296875 193.00742187 47.3984375 192.49609375 C61.22842529 178.09213414 79.44354497 169.24258304 99.5625 168.625 C103.5567142 168.69795368 105.69215427 168.84898134 109.3125 170.625 C113.3585416 178.71708321 111.37055611 189.08672217 109.171875 197.5703125 C105.5862377 208.06427767 100.29490406 217.63954816 93 226 C92.22785156 226.96808594 91.45570313 227.93617188 90.66015625 228.93359375 C80.36529029 241.26656885 64.7242457 248.99725614 49 251 C47.66186871 251.31351803 46.32643239 251.64018616 45 252 C45.03480469 252.6290625 45.06960938 253.258125 45.10546875 253.90625 C45.48341232 265.85646581 45.48341232 265.85646581 42 270 C37.13082533 271.68576124 32.84669215 272.25620777 27.7109375 272.265625 C27.04462311 272.26753845 26.37830872 272.2694519 25.69180298 272.27142334 C24.29518248 272.27277418 22.89854894 272.26915542 21.50195312 272.26074219 C19.37341044 272.24999197 17.24570499 272.26069189 15.1171875 272.2734375 C13.75260232 272.27211637 12.38801766 272.26955494 11.0234375 272.265625 C9.79544434 272.26336914 8.56745117 272.26111328 7.30224609 272.25878906 C4.04931758 272.0038649 1.86566887 271.53492829 -1 270 C-3.46827522 266.29758718 -3.23759026 264.3408889 -3.1875 259.9375 C-3.18105469 258.68839844 -3.17460937 257.43929688 -3.16796875 256.15234375 C-3 253 -3 253 -2 251 C-3.010625 251.0825 -4.02125 251.165 -5.0625 251.25 C-21.34809411 251.1636806 -36.16706091 242.49257077 -48 232 C-48.95326172 231.17048828 -48.95326172 231.17048828 -49.92578125 230.32421875 C-61.36963776 219.69234319 -70.32181188 201.90596924 -71.2109375 186.296875 C-71.56100146 174.67868805 -71.56100146 174.67868805 -68 170 C-59.59609939 165.79804969 -46.41699827 169.66651052 -37.87792969 172.34960938 C-24.93268735 176.83298504 -14.57386834 185.42613166 -5 195 C-4.66972918 192.24974483 -4.38501166 189.50702017 -4.125 186.75 C-4.02703125 185.97269531 -3.9290625 185.19539062 -3.828125 184.39453125 C-3.63403038 182.12362423 -3.54156135 180.23520897 -4 178 C-6.74846542 175.49205144 -6.74846542 175.49205144 -10 174 C-15.78639527 168.21360473 -17.1781209 161.39097298 -17.1875 153.4375 C-17.13996936 151.62454569 -17.08276745 149.81168762 -17 148 C-18.07701172 147.82984375 -18.07701172 147.82984375 -19.17578125 147.65625 C-30.24514052 145.08411673 -40.38417051 136.51809749 -46.4375 127.125 C-52.33123067 116.41972084 -53.15166395 104.73371011 -53.23828125 92.7734375 C-53.25038887 91.1746727 -53.25038887 91.1746727 -53.26274109 89.54360962 C-53.27651894 87.29959716 -53.287269 85.0555643 -53.29516602 82.81152344 C-53.30674038 80.51686463 -53.32727696 78.22223386 -53.35668945 75.92773438 C-53.39924231 72.60528345 -53.41551235 69.2836266 -53.42578125 65.9609375 C-53.44328934 64.93688812 -53.46079742 63.91283875 -53.47883606 62.85775757 C-53.45713317 55.75063978 -53.45713317 55.75063978 -51.09838867 51.87744141 C-47.37078716 48.54233313 -44.80808197 48.8926538 -39.875 48.9375 C-38.59367187 48.94652344 -37.31234375 48.95554688 -35.9921875 48.96484375 C-34.51105469 48.98224609 -34.51105469 48.98224609 -33 49 C-33.02618408 47.89076172 -33.05236816 46.78152344 -33.0793457 45.63867188 C-33.17035419 41.49402308 -33.22743163 37.34946125 -33.2746582 33.20410156 C-33.29968775 31.41553864 -33.33372244 29.62707683 -33.37719727 27.83886719 C-33.43836411 25.25690677 -33.46632445 22.67630678 -33.48828125 20.09375 C-33.51408768 19.30383667 -33.5398941 18.51392334 -33.56648254 17.70007324 C-33.56947256 11.68145648 -31.82069317 7.64909391 -28 3 C-19.8112679 -4.47869243 -9.46526056 -6.2430442 0 0 Z M-18 12 C-19.58645357 15.17290713 -19.12078213 18.58825384 -19.09765625 22.0703125 C-19.0962413 22.86654022 -19.09482635 23.66276794 -19.09336853 24.48312378 C-19.08776345 27.0304538 -19.07521014 29.57769647 -19.0625 32.125 C-19.05748565 33.85025915 -19.05292263 35.57551967 -19.04882812 37.30078125 C-19.03779237 41.53388791 -19.02052436 45.76692914 -19 50 C-14.71 50 -10.42 50 -6 50 C-5.92586479 44.92801112 -5.87140549 39.85633732 -5.83520508 34.78393555 C-5.82011484 33.05829373 -5.79964025 31.33269028 -5.77368164 29.60717773 C-5.73730791 27.12734512 -5.72027641 24.64801936 -5.70703125 22.16796875 C-5.68380547 21.01001045 -5.68380547 21.01001045 -5.66011047 19.82865906 C-5.63528268 15.68514814 -5.63528268 15.68514814 -7.33081055 12.00512695 C-10.78630588 9.92434967 -14.36117987 10.78705996 -18 12 Z M48.29956055 12.02075195 C46.22959257 15.17334079 46.63395361 18.52456698 46.70703125 22.16796875 C46.71127609 22.96278152 46.71552094 23.7575943 46.71989441 24.57649231 C46.7366807 27.11384021 46.77433176 29.65039238 46.8125 32.1875 C46.82754695 33.90819165 46.84123534 35.62889576 46.85351562 37.34960938 C46.88658393 41.56671262 46.93836505 45.78322142 47 50 C51.29 50 55.58 50 60 50 C60.07435222 45.24946489 60.12869691 40.49927113 60.16479492 35.74829102 C60.17984876 34.13332211 60.20029648 32.51839387 60.22631836 30.90356445 C60.26285286 28.57753445 60.27976015 26.25204659 60.29296875 23.92578125 C60.30845261 23.20787918 60.32393646 22.48997711 60.33988953 21.75032043 C60.34135573 17.34816055 59.85699058 14.42059504 57 11 C53.65124931 10.52160704 51.27287692 10.23590834 48.29956055 12.02075195 Z M-39 63 C-41.80989262 96.45065855 -41.80989262 96.45065855 -29.94140625 126.28125 C-23.17838902 132.26862944 -14.78992006 135.10507141 -5.92138672 135.16113281 C-4.69265839 135.17074036 -3.46393005 135.1803479 -2.19796753 135.19024658 C-0.85854276 135.19509687 0.48088419 135.19937513 1.8203125 135.203125 C2.49921413 135.20595238 3.17811577 135.20877975 3.87759018 135.21169281 C7.47471249 135.22666723 11.07179492 135.23590599 14.66894531 135.24023438 C18.36059156 135.24569734 22.05186493 135.26968371 25.74339485 135.29820633 C28.60211194 135.31696324 31.46074184 135.32204532 34.31951523 135.32357025 C36.33448325 135.32801831 38.34940436 135.34660537 40.36428833 135.36553955 C52.90391408 135.33537651 62.33211298 132.83078145 71.7890625 124.40625 C85.45944501 110.12979142 80 79.01845282 80 63 C40.73 63 1.46 63 -39 63 Z M-2 149 C-2 153.29 -2 157.58 -2 162 C2.48834464 165.36625848 5.02843732 165.44002588 10.34375 165.3984375 C11.55291077 165.40274277 11.55291077 165.40274277 12.78649902 165.40713501 C14.48771875 165.40917292 16.18896205 165.40366214 17.89013672 165.39111328 C20.49109391 165.37505499 23.09049727 165.39097043 25.69140625 165.41015625 C27.34635759 165.40817377 29.00130796 165.40432999 30.65625 165.3984375 C31.43238647 165.40451019 32.20852295 165.41058289 33.00817871 165.4168396 C37.76873035 165.35496376 39.00166504 164.99875122 43 162 C43 157.71 43 153.42 43 149 C28.15 149 13.3 149 -2 149 Z M11 179 C11 204.74 11 230.48 11 257 C17.27 257 23.54 257 30 257 C30 231.26 30 205.52 30 179 C23.73 179 17.46 179 11 179 Z " fill="#15C45E" transform="translate(230,96)"/>
<path d="M0 0 C1.02895889 -0.00428513 2.05791779 -0.00857025 3.11805725 -0.01298523 C5.28206653 -0.0186974 7.446095 -0.01925193 9.61010742 -0.01489258 C12.89730958 -0.01173111 16.18361178 -0.03523698 19.47070312 -0.06054688 C21.58463429 -0.06282023 23.69856786 -0.0635232 25.8125 -0.0625 C26.78259506 -0.07170975 27.75269012 -0.08091949 28.75218201 -0.09040833 C38.75566903 -0.02349446 47.69694803 2.07548209 54.97265625 9.30078125 C59.22766851 14.99879767 60.52998088 20.27849087 59.97265625 27.30078125 C58.36234898 33.11624326 56.56999172 39.20045502 51.97265625 43.30078125 C43.40918396 48.09829058 35.20934484 48.47154003 25.58203125 48.5390625 C24.48223938 48.54713425 23.38244751 48.55520599 22.24932861 48.56352234 C19.92616331 48.57732253 17.60297807 48.58806276 15.27978516 48.59594727 C12.91546647 48.60746865 10.55117383 48.62792276 8.18701172 48.6574707 C4.75600657 48.70031638 1.32577131 48.71633948 -2.10546875 48.7265625 C-3.15059631 48.74407059 -4.19572388 48.76157867 -5.27252197 48.77961731 C-13.4598148 48.75568725 -20.36660927 47.16570388 -26.90234375 42.05078125 C-31.20991424 36.47627826 -34.35431626 30.50780024 -34.02734375 23.30078125 C-32.57487399 15.35409573 -28.24228024 9.60260792 -22.71484375 3.92578125 C-15.897854 -0.19611953 -7.74589276 -0.00726214 0 0 Z " fill="#13C35C" transform="translate(237.02734375,170.69921875)"/>
<path d="M0 0 C1.051875 0.639375 2.10375 1.27875 3.1875 1.9375 C5 4 5 4 5.5 7.5625 C5 11 5 11 3.8125 12.875 C1.4557079 14.33783648 -0.22677421 14.70910219 -3 15 C-6.09375 14.14453125 -6.09375 14.14453125 -9.5 12.8125 C-10.7271875 12.34972656 -11.954375 11.88695313 -13.21875 11.41015625 C-13.84523438 11.17312988 -14.47171875 10.93610352 -15.1171875 10.69189453 C-18.04874724 9.61460715 -21.01794224 8.67676336 -24 7.75 C-25.010625 7.43546875 -26.02125 7.1209375 -27.0625 6.796875 C-45.17215393 1.88414973 -64.20527524 4.58256321 -80.5625 13.3125 C-81.52687988 13.87324219 -81.52687988 13.87324219 -82.51074219 14.4453125 C-85.87957114 16.32608057 -87.94454711 17.00118465 -91.83984375 16.91796875 C-95 16 -95 16 -97 13 C-97.4813823 9.30940234 -97.42566735 7.61195714 -95.27734375 4.5234375 C-73.28892161 -19.84109201 -25.28285449 -15.83414266 0 0 Z " fill="#1DC663" transform="translate(296,41)"/>
<path d="M0 0 C2.1517994 1.81749359 2.89307668 2.68745491 3.8125 5.375 C4.03520387 8.49285425 3.45048685 10.25170913 2 13 C-1.53145441 14.76572721 -5.1845766 14.51128873 -9 14 C-12.16229587 12.89119499 -15.16445759 11.60221612 -18.203125 10.19140625 C-28.29826121 5.89110381 -39.89238096 7.56848336 -50 11 C-51.97108314 11.88891985 -53.93009298 12.80518049 -55.875 13.75 C-59.12890415 15.29724549 -60.8469549 15.9945341 -64.5 16.125 C-67.79258046 14.6433388 -68.70508775 13.3515376 -70 10 C-70.14527355 7.16716579 -69.58833469 5.73444429 -67.8203125 3.52734375 C-50.48518257 -13.33344183 -19.63793643 -10.22419548 0 0 Z " fill="#1FC665" transform="translate(283,64)"/>
</svg>
