<?xml version="1.0" encoding="UTF-8"?>
<svg version="1.1" xmlns="http://www.w3.org/2000/svg" width="500" height="500">
<path d="M0 0 C0.6721051 -0.00608276 1.34421021 -0.01216553 2.03668213 -0.01843262 C14.20424608 -0.09036641 27.26374364 0.58181579 38 6.875 C39.01320313 7.45121094 40.02640625 8.02742188 41.0703125 8.62109375 C48.40290255 13.369916 48.40290255 13.369916 49.90625 16.76953125 C51.03773892 22.75699344 50.89358988 26.0969179 47.875 31.4375 C47.215 31.4375 46.555 31.4375 45.875 31.4375 C45.441875 33.04625 45.441875 33.04625 45 34.6875 C44.14679891 37.53150364 43.3113497 39.87258983 41.875 42.4375 C41.215 42.4375 40.555 42.4375 39.875 42.4375 C40.0915625 44.3865625 40.0915625 44.3865625 40.3125 46.375 C40.43431641 47.47134766 40.43431641 47.47134766 40.55859375 48.58984375 C40.69386614 50.44890229 40.69386614 50.44890229 41.875 51.4375 C41.76278564 52.81360244 41.63507578 54.18845323 41.5 55.5625 C41.45353023 58.5040363 41.4970864 59.93744305 43.2890625 62.30859375 C45.08365108 64.0052984 45.08365108 64.0052984 46.953125 65.44140625 C51.86618322 70.54419639 53.52553009 76.73970459 54.125 83.625 C54.23884033 84.75784424 54.23884033 84.75784424 54.35498047 85.91357422 C55.20525712 95.40158191 55.04389985 104.92280859 54.875 114.4375 C55.90669312 114.42553589 55.90669312 114.42553589 56.95922852 114.41333008 C58.31165649 114.40402466 58.31165649 114.40402466 59.69140625 114.39453125 C61.03247437 114.38256714 61.03247437 114.38256714 62.40063477 114.37036133 C65.38199221 114.45125657 67.34539004 114.82774821 69.875 116.4375 C72.90813287 120.47171614 73.40789896 124.09462607 73.5625 129 C73.59448486 129.76159424 73.62646973 130.52318848 73.65942383 131.30786133 C73.75772616 134.01766705 73.82108439 136.72644364 73.875 139.4375 C73.89691406 140.53868164 73.91882813 141.63986328 73.94140625 142.77441406 C74.67466859 187.14900696 74.67466859 187.14900696 59.625 205.125 C55.57680119 208.52916718 51.25547575 211.47980277 46.875 214.4375 C46.24464844 214.87835938 45.61429688 215.31921875 44.96484375 215.7734375 C41.11990248 218.4375 41.11990248 218.4375 38.875 218.4375 C38.56075214 220.12467539 38.24869845 221.81225949 37.9375 223.5 C37.74800781 224.50804687 37.55851563 225.51609375 37.36328125 226.5546875 C36.80509254 229.55864798 36.80509254 229.55864798 36.625 233.125 C35.58537992 237.71665534 33.15773519 241.08510465 29.875 244.4375 C29.215 244.4375 28.555 244.4375 27.875 244.4375 C27.875 245.0975 27.875 245.7575 27.875 246.4375 C27.215 246.4375 26.555 246.4375 25.875 246.4375 C25.875 249.4075 25.875 252.3775 25.875 255.4375 C29.83232891 254.07387334 32.51810393 252.27619938 35.6875 249.5625 C48.05074851 239.47525453 64.7670811 234.75853726 80.67578125 235.1171875 C84.18996571 235.62902254 86.30299998 237.06334613 88.875 239.4375 C93.16472122 251.88815427 87.89809988 267.08276162 82.875 278.4375 C82.46636719 279.36433594 82.05773437 280.29117187 81.63671875 281.24609375 C72.63166628 299.54839802 54.96063277 312.22544544 36.05859375 318.83203125 C27.81868375 321.4375 27.81868375 321.4375 23.875 321.4375 C23.74222656 322.41332031 23.60945313 323.38914062 23.47265625 324.39453125 C23.29605469 325.66683594 23.11945313 326.93914062 22.9375 328.25 C22.67646484 330.14685547 22.67646484 330.14685547 22.41015625 332.08203125 C21.875 335.4375 21.875 335.4375 20.875 338.4375 C16.92564486 341.07040343 13.51994248 340.72494926 8.9375 340.703125 C8.06101807 340.70503845 7.18453613 340.7069519 6.28149414 340.70892334 C4.42887078 340.71028399 2.57623784 340.70659594 0.72363281 340.69824219 C-2.11414989 340.68754092 -4.95129952 340.69814148 -7.7890625 340.7109375 C-9.58854307 340.70961588 -11.38802324 340.70705345 -13.1875 340.703125 C-14.03755615 340.70717346 -14.8876123 340.71122192 -15.76342773 340.71539307 C-21.78009751 340.66743499 -21.78009751 340.66743499 -25.125 338.4375 C-26.31195553 334.87663342 -26.47595418 331.46418976 -26.6875 327.75 C-26.73068359 327.04810547 -26.77386719 326.34621094 -26.81835938 325.62304688 C-26.9241736 323.89474794 -27.02506581 322.1661489 -27.125 320.4375 C-28.73181641 320.21126953 -28.73181641 320.21126953 -30.37109375 319.98046875 C-45.47357942 317.79603014 -57.3755507 312.15174629 -69.125 302.4375 C-69.87652344 301.8496875 -70.62804687 301.261875 -71.40234375 300.65625 C-82.7048693 291.45803343 -92.75149294 274.22617641 -94.609375 259.6328125 C-94.71047733 258.27691979 -94.79869906 256.92001423 -94.875 255.5625 C-94.91520264 254.85649658 -94.95540527 254.15049316 -94.99682617 253.4230957 C-95.22344047 248.27163515 -95.08812227 244.20508266 -93.125 239.4375 C-89.72541054 235.92459089 -86.48113423 235.53795439 -81.75 235.1875 C-62.6923448 235.50630836 -45.05214207 245.05781816 -31.125 257.4375 C-30.465 257.4375 -29.805 257.4375 -29.125 257.4375 C-29.09081034 250.00194381 -29.09081034 250.00194381 -32.4375 243.6875 C-33.7678125 242.57375 -33.7678125 242.57375 -35.125 241.4375 C-37.97971945 237.09875815 -39.50288621 233.57387852 -40.39013672 228.48730469 C-41.24300616 223.62930478 -41.98498278 219.67186347 -45.390625 215.984375 C-47.90097835 214.25568856 -50.4051136 212.80825356 -53.125 211.4375 C-65.44317551 203.46691584 -72.57072041 194.98200068 -76.125 180.4375 C-76.41863284 177.98505474 -76.62735493 175.521201 -76.7578125 173.0546875 C-76.79421844 172.37023056 -76.83062439 171.68577362 -76.86813354 170.98057556 C-77.22045065 163.72279182 -77.27646457 156.46356589 -77.25537109 149.19848633 C-77.24994297 146.97665783 -77.25539639 144.75502612 -77.26171875 142.53320312 C-77.26564678 138.49939297 -77.21233221 134.470415 -77.125 130.4375 C-77.10663086 129.49374512 -77.08826172 128.54999023 -77.06933594 127.57763672 C-76.84879221 123.84612942 -76.36721109 121.74460016 -74.03173828 118.78344727 C-70.52149683 115.95042945 -68.26220256 115.58244606 -63.8125 115.125 C-62.55824219 114.98449219 -61.30398437 114.84398437 -60.01171875 114.69921875 C-58.58279297 114.56966797 -58.58279297 114.56966797 -57.125 114.4375 C-57.14594727 113.52572998 -57.16689453 112.61395996 -57.18847656 111.67456055 C-57.25730293 108.2395586 -57.30711096 104.80530612 -57.34472656 101.36987305 C-57.36464487 99.89286622 -57.39179007 98.41593616 -57.42675781 96.93920898 C-57.66114645 86.77432542 -57.68686974 76.94020596 -50.87109375 68.71875 C-50.10925781 68.1309375 -49.34742188 67.543125 -48.5625 66.9375 C-47.79808594 66.3290625 -47.03367188 65.720625 -46.24609375 65.09375 C-45.54613281 64.5471875 -44.84617188 64.000625 -44.125 63.4375 C-40.67747027 60.23844088 -40.27266919 58.17261299 -39.875 53.5 C-39.96540506 47.5720109 -40.8182506 39.36872852 -44.5390625 34.640625 C-46.27984639 33.2399325 -46.27984639 33.2399325 -49.1875 31.9375 C-52.125 30.4375 -52.125 30.4375 -54.125 27.4375 C-54.57985713 22.81311917 -54.61343761 20.43391272 -52.5625 16.25 C-47.18126562 10.0408834 -40.85547747 6.97722493 -33.125 4.4375 C-31.49304688 3.87482422 -31.49304688 3.87482422 -29.828125 3.30078125 C-19.94302462 0.42603267 -10.22642319 0.0349156 0 0 Z " fill="#12C35B" transform="translate(252.125,27.5625)"/>
<path d="M0 0 C0.6721051 -0.00608276 1.34421021 -0.01216553 2.03668213 -0.01843262 C14.20424608 -0.09036641 27.26374364 0.58181579 38 6.875 C39.01320313 7.45121094 40.02640625 8.02742188 41.0703125 8.62109375 C48.40290255 13.369916 48.40290255 13.369916 49.90625 16.76953125 C51.03773892 22.75699344 50.89358988 26.0969179 47.875 31.4375 C47.215 31.4375 46.555 31.4375 45.875 31.4375 C45.58625 32.51 45.2975 33.5825 45 34.6875 C44.14679891 37.53150364 43.3113497 39.87258983 41.875 42.4375 C41.215 42.4375 40.555 42.4375 39.875 42.4375 C40.0915625 44.3865625 40.0915625 44.3865625 40.3125 46.375 C40.43431641 47.47134766 40.43431641 47.47134766 40.55859375 48.58984375 C40.69386614 50.44890229 40.69386614 50.44890229 41.875 51.4375 C41.76278564 52.81360244 41.63507578 54.18845323 41.5 55.5625 C41.45353023 58.5040363 41.4970864 59.93744305 43.2890625 62.30859375 C45.08365108 64.0052984 45.08365108 64.0052984 46.953125 65.44140625 C51.86618322 70.54419639 53.52553009 76.73970459 54.125 83.625 C54.23884033 84.75784424 54.23884033 84.75784424 54.35498047 85.91357422 C55.20525712 95.40158191 55.04389985 104.92280859 54.875 114.4375 C55.90669312 114.42553589 55.90669312 114.42553589 56.95922852 114.41333008 C58.31165649 114.40402466 58.31165649 114.40402466 59.69140625 114.39453125 C61.03247437 114.38256714 61.03247437 114.38256714 62.40063477 114.37036133 C65.38199221 114.45125657 67.34539004 114.82774821 69.875 116.4375 C72.90813287 120.47171614 73.40789896 124.09462607 73.5625 129 C73.59448486 129.76159424 73.62646973 130.52318848 73.65942383 131.30786133 C73.75772616 134.01766705 73.82108439 136.72644364 73.875 139.4375 C73.89691406 140.53868164 73.91882813 141.63986328 73.94140625 142.77441406 C74.67466859 187.14900696 74.67466859 187.14900696 59.625 205.125 C55.57680119 208.52916718 51.25547575 211.47980277 46.875 214.4375 C46.24464844 214.87835938 45.61429687 215.31921875 44.96484375 215.7734375 C41.11990248 218.4375 41.11990248 218.4375 38.875 218.4375 C38.56075214 220.12467539 38.24869845 221.81225949 37.9375 223.5 C37.74800781 224.50804687 37.55851562 225.51609375 37.36328125 226.5546875 C36.80509254 229.55864798 36.80509254 229.55864798 36.625 233.125 C35.58537992 237.71665534 33.15773519 241.08510465 29.875 244.4375 C29.215 244.4375 28.555 244.4375 27.875 244.4375 C27.875 245.0975 27.875 245.7575 27.875 246.4375 C27.215 246.4375 26.555 246.4375 25.875 246.4375 C25.875 249.4075 25.875 252.3775 25.875 255.4375 C29.83232891 254.07387334 32.51810393 252.27619938 35.6875 249.5625 C48.05074851 239.47525453 64.7670811 234.75853726 80.67578125 235.1171875 C84.18996571 235.62902254 86.30299998 237.06334613 88.875 239.4375 C91.71559192 247.68214484 89.46716978 257.16390347 87.875 265.4375 C87.03416297 262.53103002 86.77588108 260.01612241 86.84765625 256.99609375 C86.85990234 256.16529297 86.87214844 255.33449219 86.88476562 254.47851562 C86.92000265 252.7388506 86.95908286 250.99925928 87.00195312 249.25976562 C87.01838867 248.01549805 87.01838867 248.01549805 87.03515625 246.74609375 C87.05199463 245.99126709 87.06883301 245.23644043 87.08618164 244.45874023 C87.0004354 242.12164946 87.0004354 242.12164946 84.875 239.4375 C81.91129155 238.71725227 78.85322849 238.86655822 75.8125 238.875 C74.91869629 238.87741699 74.02489258 238.87983398 73.10400391 238.88232422 C54.42200907 239.38867412 40.22167008 249.02700323 26.68359375 261.0234375 C23.875 263.4375 23.875 263.4375 22.875 263.4375 C22.73989747 260.51928537 22.6408695 257.60732348 22.5625 254.6875 C22.52060547 253.8625 22.47871094 253.0375 22.43554688 252.1875 C22.31168608 246.04400439 22.31168608 246.04400439 25.26953125 242.859375 C27.875 241.4375 27.875 241.4375 29.875 241.4375 C30.16375 240.674375 30.4525 239.91125 30.75 239.125 C31.875 236.4375 31.875 236.4375 33.875 233.4375 C34.2376117 231.51005631 34.2376117 231.51005631 34.2890625 229.42578125 C34.32773437 228.66845703 34.36640625 227.91113281 34.40625 227.13085938 C34.4371875 226.34517578 34.468125 225.55949219 34.5 224.75 C34.53867187 223.95271484 34.57734375 223.15542969 34.6171875 222.33398438 C34.71132494 220.36886525 34.79424632 218.4032146 34.875 216.4375 C35.98875 215.880625 37.1025 215.32375 38.25 214.75 C38.97316406 214.38648438 39.69632812 214.02296875 40.44140625 213.6484375 C42.13060228 212.80790657 43.82646138 211.98068644 45.52734375 211.1640625 C46.40519531 210.73867187 47.28304687 210.31328125 48.1875 209.875 C49.00863281 209.48183594 49.82976562 209.08867187 50.67578125 208.68359375 C52.8112425 207.47362547 54.16623016 206.16631406 55.875 204.4375 C56.535 204.4375 57.195 204.4375 57.875 204.4375 C58.2153125 203.6640625 58.2153125 203.6640625 58.5625 202.875 C59.875 200.4375 59.875 200.4375 62.25 197.375 C71.85007271 184.06516467 71.20268975 166.75918897 71.13574219 151.11791992 C71.1249613 148.11421818 71.13571728 145.11110618 71.1484375 142.10742188 C71.14711682 140.17968619 71.14455634 138.25195088 71.140625 136.32421875 C71.14669769 134.99120979 71.14669769 134.99120979 71.15289307 133.63127136 C71.14658875 132.78961929 71.14028442 131.94796722 71.13378906 131.08081055 C71.13219788 130.35089401 71.13060669 129.62097748 71.12896729 128.86894226 C70.86088334 125.62248166 70.86088334 125.62248166 68.875 119.4375 C62.935 119.1075 56.995 118.7775 50.875 118.4375 C50.87242187 115.6428125 50.86984375 112.848125 50.8671875 109.96875 C50.84432738 107.24139804 50.81131621 104.51434292 50.77734375 101.78710938 C50.75925271 99.90176464 50.75160267 98.01628805 50.75488281 96.13085938 C50.7577599 93.40913251 50.72224184 90.69010131 50.6796875 87.96875 C50.68878143 87.13508911 50.69787537 86.30142822 50.70724487 85.44250488 C50.54981516 79.00433438 48.42141397 74.9908658 43.875 70.4375 C39.23135337 67.10776033 34.83886723 65.76400751 29.11328125 66.05078125 C23.90086041 66.95135658 20.07227588 69.14570233 16.5 73 C15.695625 74.2065625 15.695625 74.2065625 14.875 75.4375 C14.215 76.4275 13.555 77.4175 12.875 78.4375 C12.55039843 80.35198052 12.55039843 80.35198052 12.55615234 82.44995117 C12.53628265 83.25055466 12.51641296 84.05115814 12.49594116 84.87602234 C12.48438995 85.73548965 12.47283875 86.59495697 12.4609375 87.48046875 C12.44157135 88.3640657 12.4222052 89.24766266 12.4022522 90.15803528 C12.34247195 92.98025866 12.29607734 95.80252286 12.25 98.625 C12.21181878 100.53842925 12.17276696 102.45184133 12.1328125 104.36523438 C12.03513269 109.0559003 11.95555239 113.7463834 11.875 118.4375 C2.965 118.4375 -5.945 118.4375 -15.125 118.4375 C-15.11597656 115.570625 -15.10695312 112.70375 -15.09765625 109.75 C-15.11270067 106.95313708 -15.13964849 104.15662221 -15.16772461 101.35986328 C-15.18081098 99.42598818 -15.18164767 97.49198781 -15.16967773 95.55810547 C-14.55630231 83.12316803 -14.55630231 83.12316803 -19.46875 72.25 C-24.35665096 67.9436178 -29.48984112 65.88492101 -36.07421875 66.140625 C-39.66088347 66.65983742 -42.83351768 67.96730456 -46.125 69.4375 C-47.300625 69.9015625 -47.300625 69.9015625 -48.5 70.375 C-51.44643174 72.30151306 -52.04925009 75.21025028 -53.125 78.4375 C-53.23735161 79.77201263 -53.30075649 81.11104389 -53.33032227 82.44995117 C-53.35026749 83.25055466 -53.37021271 84.05115814 -53.39076233 84.87602234 C-53.41583107 86.16522331 -53.41583107 86.16522331 -53.44140625 87.48046875 C-53.46218735 88.3640657 -53.48296844 89.24766266 -53.50437927 90.15803528 C-53.56975754 92.98027785 -53.62870528 95.80261335 -53.6875 98.625 C-53.73069637 100.53842106 -53.77431102 102.45183273 -53.81835938 104.36523438 C-53.92542695 109.05589437 -54.02672752 113.74664783 -54.125 118.4375 C-55.32898438 118.48648438 -56.53296875 118.53546875 -57.7734375 118.5859375 C-59.34898198 118.66096343 -60.92450166 118.73651133 -62.5 118.8125 C-63.2940625 118.8434375 -64.088125 118.874375 -64.90625 118.90625 C-69.49167375 118.95566421 -69.49167375 118.95566421 -73.125 121.4375 C-73.44531839 123.79692069 -73.44531839 123.79692069 -73.41552734 126.56713867 C-73.42828705 127.63973434 -73.44104675 128.71233002 -73.45419312 129.81742859 C-73.45641876 130.98498184 -73.45864441 132.1525351 -73.4609375 133.35546875 C-73.4709227 135.16232903 -73.4709227 135.16232903 -73.48110962 137.00569153 C-73.49125967 139.56717398 -73.49592592 142.128683 -73.49560547 144.69018555 C-73.49993199 148.56410207 -73.53609801 152.43683571 -73.57421875 156.31054688 C-73.75190787 181.87430565 -73.75190787 181.87430565 -61.125 203.4375 C-58.58050612 205.66176846 -55.98322299 207.63590732 -53.125 209.4375 C-53.785 209.7675 -54.445 210.0975 -55.125 210.4375 C-66.34573223 202.09956459 -72.81079648 194.30998697 -76.125 180.4375 C-76.41487749 177.98602607 -76.62216239 175.52362863 -76.75390625 173.05859375 C-76.79059418 172.37385483 -76.8272821 171.68911591 -76.86508179 170.98362732 C-77.22019231 163.72473843 -77.27646812 156.46478768 -77.25537109 149.19848633 C-77.24994297 146.97665783 -77.25539639 144.75502612 -77.26171875 142.53320312 C-77.26564678 138.49939297 -77.21233221 134.470415 -77.125 130.4375 C-77.10663086 129.49374512 -77.08826172 128.54999023 -77.06933594 127.57763672 C-76.84879221 123.84612942 -76.36721109 121.74460016 -74.03173828 118.78344727 C-70.52149683 115.95042945 -68.26220256 115.58244606 -63.8125 115.125 C-62.55824219 114.98449219 -61.30398437 114.84398437 -60.01171875 114.69921875 C-59.05910156 114.61285156 -58.10648438 114.52648437 -57.125 114.4375 C-57.14594727 113.52572998 -57.16689453 112.61395996 -57.18847656 111.67456055 C-57.25730293 108.2395586 -57.30711096 104.80530612 -57.34472656 101.36987305 C-57.36464487 99.89286622 -57.39179007 98.41593616 -57.42675781 96.93920898 C-57.66114645 86.77432542 -57.68686974 76.94020596 -50.87109375 68.71875 C-49.72833984 67.83703125 -49.72833984 67.83703125 -48.5625 66.9375 C-47.79808594 66.3290625 -47.03367188 65.720625 -46.24609375 65.09375 C-45.54613281 64.5471875 -44.84617188 64.000625 -44.125 63.4375 C-40.67747027 60.23844088 -40.27266919 58.17261299 -39.875 53.5 C-39.96540506 47.5720109 -40.8182506 39.36872852 -44.5390625 34.640625 C-46.27984639 33.2399325 -46.27984639 33.2399325 -49.1875 31.9375 C-52.125 30.4375 -52.125 30.4375 -54.125 27.4375 C-54.57985713 22.81311917 -54.61343761 20.43391272 -52.5625 16.25 C-47.18126562 10.0408834 -40.85547747 6.97722493 -33.125 4.4375 C-31.49304688 3.87482422 -31.49304688 3.87482422 -29.828125 3.30078125 C-19.94302462 0.42603267 -10.22642319 0.0349156 0 0 Z " fill="#FAFDFB" transform="translate(252.125,27.5625)"/>
<path d="M0 0 C39.27 0 78.54 0 119 0 C119 50 119 50 113 59 C112.46375 59.825 111.9275 60.65 111.375 61.5 C103.23572197 70.06766109 91.92124838 73.009331 80.39624023 73.40405273 C78.03381589 73.43022766 75.67115596 73.43940195 73.30859375 73.43359375 C72.04209488 73.4388356 70.77559601 73.44407745 69.47071838 73.44947815 C66.8106401 73.4558623 64.15143259 73.45607501 61.49145508 73.44604492 C58.11378801 73.43453755 54.73716382 73.45483184 51.35963345 73.48396206 C48.09261679 73.50689956 44.82567189 73.49985052 41.55859375 73.49609375 C40.36245956 73.50732773 39.16632538 73.51856171 37.9339447 73.53013611 C30.20473954 73.46662577 24.05973963 72.13548337 17 69 C16.33580551 68.72647202 15.67161102 68.45294403 14.98728943 68.17112732 C5.78715938 63.78201219 3.25313868 53.94613138 0 45 C0 30.15 0 15.3 0 0 Z " fill="#F2FBF6" transform="translate(191,159)"/>
<path d="M0 0 C1.63782944 -0.01925285 1.63782944 -0.01925285 3.30874634 -0.03889465 C4.48996063 -0.04628159 5.67117493 -0.05366852 6.88818359 -0.0612793 C8.71426651 -0.07338692 8.71426651 -0.07338692 10.57723999 -0.08573914 C13.15792415 -0.09958137 15.73862663 -0.11030289 18.31933594 -0.11816406 C22.25019494 -0.13533889 26.18020469 -0.17922146 30.11083984 -0.22338867 C32.61994825 -0.23351905 35.1290638 -0.24203407 37.63818359 -0.2487793 C38.8072525 -0.26628738 39.97632141 -0.28379547 41.18081665 -0.30183411 C48.30546811 -0.28306956 53.4174082 0.75215682 59.66162109 4.17700195 C61.02287109 4.76481445 61.02287109 4.76481445 62.41162109 5.36450195 C66.86639259 8.95306788 69.24575281 13.47744315 70.11474609 19.1184082 C70.41114427 27.40697158 68.29997914 33.26201905 63.72412109 40.05200195 C59.3458892 44.56290754 55.07894504 46.00328866 48.89881897 46.31744385 C47.89765549 46.32427185 46.896492 46.33109985 45.86499023 46.33813477 C44.72353043 46.34774231 43.58207062 46.35734985 42.40602112 46.36724854 C41.18197067 46.37149841 39.95792023 46.37574829 38.69677734 46.38012695 C36.7976786 46.38867706 36.7976786 46.38867706 34.86021423 46.3973999 C32.18468637 46.40683794 29.50927035 46.41374141 26.83374023 46.41723633 C23.41636313 46.42272446 19.99938374 46.44677285 16.58213139 46.47520828 C13.30787713 46.49837578 10.03360208 46.50028618 6.75927734 46.50512695 C4.92623802 46.52364716 4.92623802 46.52364716 3.0561676 46.5425415 C-4.1648308 46.52360851 -9.09499059 46.16315602 -14.60400391 41.09106445 C-15.25884766 40.33567383 -15.91369141 39.5802832 -16.58837891 38.80200195 C-17.25353516 38.05176758 -17.91869141 37.3015332 -18.60400391 36.52856445 C-22.61690951 31.08764289 -23.23829249 25.75402996 -22.33837891 19.17700195 C-19.89176102 11.30269293 -14.96399364 5.92908144 -8.33837891 1.17700195 C-5.29587784 0.16283493 -3.18589947 0.03263455 0 0 Z " fill="#0CC258" transform="translate(226.33837890625,171.822998046875)"/>
<path d="M0 0 C2.5 2.9375 2.5 2.9375 3.125 6.125 C2.5 8.9375 2.5 8.9375 1.5 10.8125 C-1.71430707 12.62054773 -4.93993179 12.36397791 -8.5 11.9375 C-12.16703954 10.87185253 -15.66080076 9.45803467 -19.1875 8 C-21.0233359 7.25823518 -22.86053571 6.51983522 -24.69921875 5.78515625 C-25.50190186 5.45523682 -26.30458496 5.12531738 -27.1315918 4.78540039 C-41.09936548 -0.21512306 -63.06019157 0.65230657 -76.5 6.9375 C-79.64748827 8.72567156 -82.72643996 10.59474928 -85.796875 12.51171875 C-89.72506296 14.5836676 -92.15757907 14.66123682 -96.5 13.9375 C-98.5 11.9375 -98.5 11.9375 -99.125 8.25 C-99.04967842 5.47816575 -98.73679175 4.24401028 -97.02734375 2.03125 C-94.94638419 0.14473398 -92.81625703 -1.47420947 -90.5 -3.0625 C-89.82582031 -3.5265625 -89.15164062 -3.990625 -88.45703125 -4.46875 C-64.34648039 -19.30601207 -22.5224482 -17.25510144 0 0 Z " fill="#13C45C" transform="translate(298.5,43.0625)"/>
<path d="M0 0 C6.27 0 12.54 0 19 0 C19 25.74 19 51.48 19 78 C12.73 78 6.46 78 0 78 C0 52.26 0 26.52 0 0 Z " fill="#FFFEFE" transform="translate(241,275)"/>
<path d="M0 0 C0.495 0.495 0.495 0.495 1 1 C0.39655172 8.60344828 0.39655172 8.60344828 -2 11 C-9.58252991 11.98292054 -15.18905232 9.07753932 -22 6 C-32.36598456 2.54467181 -45.2905522 4.61660852 -55 9 C-56.11375 9.5775 -57.2275 10.155 -58.375 10.75 C-61.5557561 12.26464576 -63.51910991 12.52970067 -67 12 C-69.4375 10.4375 -69.4375 10.4375 -71 8 C-71.0625 4.5 -71.0625 4.5 -70 1 C-52.77147602 -15.01096044 -17.68854102 -14.5908016 0 0 Z " fill="#12C35C" transform="translate(285,67)"/>
<path d="M0 0 C14.85 0 29.7 0 45 0 C45 4.29 45 8.58 45 13 C40.44885263 16.41336052 37.79737112 16.42530085 32.40234375 16.36328125 C31.57166885 16.36377975 30.74099396 16.36427826 29.88514709 16.36479187 C28.13263552 16.36245539 26.38012034 16.35275199 24.62768555 16.33618164 C21.94354313 16.3125532 19.26039213 16.31562821 16.57617188 16.32226562 C14.87238991 16.31668976 13.16861212 16.30958046 11.46484375 16.30078125 C10.66167221 16.30169266 9.85850067 16.30260406 9.0309906 16.30354309 C5.17310684 16.25435786 3.28332097 16.18888065 0 14 C0 9.38 0 4.76 0 0 Z " fill="#FDFDFD" transform="translate(228,245)"/>
<path d="M0 0 C1.19109375 0.00773437 1.19109375 0.00773437 2.40625 0.015625 C3.2003125 0.01046875 3.994375 0.0053125 4.8125 0 C6.90625 0.265625 6.90625 0.265625 8.90625 2.265625 C9.08150055 5.06247297 9.13768189 7.7589058 9.1015625 10.5546875 C9.0987326 11.37311127 9.09590271 12.19153503 9.09298706 13.03475952 C9.08177532 15.65352893 9.05666929 18.27195864 9.03125 20.890625 C9.02122147 22.66405757 9.0120954 24.43749549 9.00390625 26.2109375 C8.98183278 30.56263126 8.94729644 34.9140705 8.90625 39.265625 C4.61625 39.265625 0.32625 39.265625 -4.09375 39.265625 C-4.14310824 34.03289169 -4.17944949 28.80029324 -4.20361328 23.56738281 C-4.21368431 21.78643433 -4.22734185 20.00550243 -4.24462891 18.22460938 C-4.26882913 15.66792717 -4.28022184 13.11146315 -4.2890625 10.5546875 C-4.29938507 9.75568024 -4.30970764 8.95667297 -4.32034302 8.13345337 C-4.32074226 6.1760528 -4.21616069 4.21919423 -4.09375 2.265625 C-2.09375 0.265625 -2.09375 0.265625 0 0 Z " fill="#FDFDFD" transform="translate(215.09375,106.734375)"/>
<path d="M0 0 C0.7940625 -0.01675781 1.588125 -0.03351563 2.40625 -0.05078125 C3.0971875 0.06910156 3.788125 0.18898438 4.5 0.3125 C7.02561648 4.10092473 6.75391573 7.09783329 6.6953125 11.48046875 C6.6924826 12.27528152 6.68965271 13.0700943 6.68673706 13.88899231 C6.67554705 16.42614838 6.65044491 18.96295072 6.625 21.5 C6.61496866 23.22069802 6.60584308 24.94140159 6.59765625 26.66210938 C6.57561161 30.87904243 6.54109006 35.09571125 6.5 39.3125 C2.21 39.3125 -2.08 39.3125 -6.5 39.3125 C-6.54935824 34.07976669 -6.58569949 28.84716824 -6.60986328 23.61425781 C-6.61993431 21.83330933 -6.63359185 20.05237743 -6.65087891 18.27148438 C-6.67507913 15.71480217 -6.68647184 13.15833815 -6.6953125 10.6015625 C-6.70563507 9.80255524 -6.71595764 9.00354797 -6.72659302 8.18032837 C-6.72699226 6.2229278 -6.62241069 4.26606923 -6.5 2.3125 C-4.07477793 -0.11272207 -3.3279321 0.01620746 0 0 Z " fill="#F8FCFA" transform="translate(283.5,106.6875)"/>
<path d="M0 0 C2.01927511 0.60578253 4.01463373 1.29094062 6 2 C6.66999023 2.22026855 7.33998047 2.44053711 8.03027344 2.66748047 C10.31360787 3.57319955 12.08559522 4.45114933 14 6 C15.31318099 9.05715666 15.52376466 12.07699145 15.75 15.375 C16.29864039 21.63142547 16.77598944 26.01077013 21 31 C22.83319246 32.4871503 22.83319246 32.4871503 24.75 33.375 C25.8225 33.91125 26.895 34.4475 28 35 C28.18451025 49.78132118 28.18451025 49.78132118 27 56 C26.38125 55.360625 25.7625 54.72125 25.125 54.0625 C24.08649079 53.03845471 23.04424382 52.01819692 22 51 C20.97712891 49.98292969 20.97712891 49.98292969 19.93359375 48.9453125 C6.6839639 36.32869627 -9.37339817 28.79234662 -27.75 28.875 C-28.62527344 28.87113281 -29.50054687 28.86726563 -30.40234375 28.86328125 C-31.64951172 28.86521484 -31.64951172 28.86521484 -32.921875 28.8671875 C-33.68081055 28.86831543 -34.43974609 28.86944336 -35.22167969 28.87060547 C-37.02494967 28.80697389 -37.02494967 28.80697389 -38 30 C-39.44321294 43.73668648 -38.5834082 55.80048262 -32 68 C-31.4121875 69.09957031 -30.824375 70.19914062 -30.21875 71.33203125 C-27.14269146 76.80282834 -23.76427047 81.98097271 -20 87 C-29.77486346 82.9625564 -34.92064722 68.20284045 -39 59 C-40.81717663 54.40608153 -41.47438438 50.02863714 -41.75 45.125 C-41.79020264 44.41899658 -41.83040527 43.71299316 -41.87182617 42.9855957 C-42.09844047 37.83413515 -41.96312227 33.76758266 -40 29 C-36.60041054 25.48709089 -33.35613423 25.10045439 -28.625 24.75 C-9.5673448 25.06880836 8.07285793 34.62031816 22 47 C22.66 47 23.32 47 24 47 C24.03418966 39.56444381 24.03418966 39.56444381 20.6875 33.25 C19.800625 32.5075 18.91375 31.765 18 31 C14.70113322 25.98622137 13.39675912 21.84170591 12.375 16 C11.1779956 10.16159097 9.89628435 7.04892644 4.75 3.5625 C3.17596323 2.69132069 1.59549 1.83123811 0 1 C0 0.67 0 0.34 0 0 Z " fill="#ECFAF2" transform="translate(199,238)"/>
<path d="M0 0 C0.6721051 -0.00608276 1.34421021 -0.01216553 2.03668213 -0.01843262 C14.20424608 -0.09036641 27.26374364 0.58181579 38 6.875 C39.01320313 7.45121094 40.02640625 8.02742188 41.0703125 8.62109375 C48.51591299 13.44310521 48.51591299 13.44310521 49.6875 16.6875 C49.749375 17.265 49.81125 17.8425 49.875 18.4375 C46.86485211 16.99427841 44.07485748 15.3383876 41.25 13.5625 C21.43653843 1.70903173 -3.41073409 0.51119982 -25.64453125 5.46484375 C-35.46228496 8.20852576 -43.8399711 12.1524711 -51.125 19.4375 C-51.19679964 20.95678038 -51.20892007 22.47917482 -51.1875 24 C-51.17847656 24.82628906 -51.16945312 25.65257813 -51.16015625 26.50390625 C-51.14855469 27.14199219 -51.13695312 27.78007813 -51.125 28.4375 C-52.115 28.1075 -53.105 27.7775 -54.125 27.4375 C-54.54415884 21.35969681 -54.27976946 18.23146476 -50.125 13.4375 C-45.17728072 8.93599413 -39.41679922 6.50457016 -33.125 4.4375 C-32.03703125 4.06238281 -30.9490625 3.68726563 -29.828125 3.30078125 C-19.94302462 0.42603267 -10.22642319 0.0349156 0 0 Z " fill="#EEFAF3" transform="translate(252.125,27.5625)"/>
<path d="M0 0 C0.33 0 0.66 0 1 0 C1.00364563 0.63067886 1.00729126 1.26135773 1.01104736 1.91114807 C1.05325381 8.54781355 1.12285893 15.18381175 1.20751953 21.82006836 C1.23553423 24.28809902 1.25684443 26.75621615 1.27099609 29.22436523 C1.06995592 56.15953106 1.06995592 56.15953106 14 79 C16.54449388 81.22426846 19.14177701 83.19840732 22 85 C21.01 85.495 21.01 85.495 20 86 C9.21005005 77.98217158 1.38099064 69.74357695 -1 56 C-1.69381537 46.39722517 -1.15176742 36.73416221 -0.8125 27.125 C-0.73908893 24.49095249 -0.66810394 21.85683619 -0.59960938 19.22265625 C-0.42773449 12.81404222 -0.22581158 6.40692848 0 0 Z " fill="#CFF2DD" transform="translate(177,152)"/>
<path d="M0 0 C0.33 0 0.66 0 1 0 C1 12.54 1 25.08 1 38 C-3.95 38 -8.9 38 -14 38 C-14 37.67 -14 37.34 -14 37 C-10.04 36.01 -6.08 35.02 -2 34 C-2 32.35 -2 30.7 -2 29 C-1.67 28.67 -1.34 28.34 -1 28 C-0.8415735 25.9291528 -0.74875578 23.85321971 -0.68359375 21.77734375 C-0.64169922 20.51728516 -0.59980469 19.25722656 -0.55664062 17.95898438 C-0.51682404 16.61849264 -0.47711186 15.2779978 -0.4375 13.9375 C-0.39431958 12.59308477 -0.35070544 11.2486834 -0.30664062 9.90429688 C-0.20014642 6.6029766 -0.0981354 3.30157764 0 0 Z " fill="#CDF2DC" transform="translate(197,108)"/>
<path d="M0 0 C2.62527189 -0.05382106 5.24944713 -0.09358313 7.875 -0.125 C8.62136719 -0.14175781 9.36773437 -0.15851563 10.13671875 -0.17578125 C12.09194461 -0.1933959 14.04742021 -0.10320189 16 0 C19.09729397 3.09729397 19.1520646 6.24775204 19.1875 10.5 C19.1431254 16.44619636 18.12107346 22.17442186 17 28 C16.15916297 25.09353002 15.90088108 22.57862241 15.97265625 19.55859375 C15.98490234 18.72779297 15.99714844 17.89699219 16.00976562 17.04101562 C16.04500265 15.3013506 16.08408286 13.56175928 16.12695312 11.82226562 C16.13791016 10.99275391 16.14886719 10.16324219 16.16015625 9.30859375 C16.18541382 8.17635376 16.18541382 8.17635376 16.21118164 7.02124023 C16.1254354 4.68414946 16.1254354 4.68414946 14 2 C10.65386488 1.41312216 10.65386488 1.41312216 6.875 1.3125 C5.59367187 1.24675781 4.31234375 1.18101562 2.9921875 1.11328125 C2.00476563 1.07589844 1.01734375 1.03851563 0 1 C0 0.67 0 0.34 0 0 Z " fill="#D1F3DF" transform="translate(323,265)"/>
<path d="M0 0 C4.99629144 1.49888743 9.38263833 3.61170948 14 6 C14 9.96 14 13.92 14 18 C13.34 17.67 12.68 17.34 12 17 C11.78850817 15.63117788 11.63087552 14.25386706 11.5 12.875 C10.85878307 9.47328985 10.26062069 8.23464521 7.6484375 5.8828125 C5.83280943 4.65023119 3.98904551 3.45788621 2.1171875 2.3125 C1.41851562 1.879375 0.71984375 1.44625 0 1 C0 0.67 0 0.34 0 0 Z " fill="#F6FCF9" transform="translate(199,238)"/>
<path d="M0 0 C3.3 0.33 6.6 0.66 10 1 C10.33 7.27 10.66 13.54 11 20 C10.34 20 9.68 20 9 20 C7.81304447 16.43913342 7.64904582 13.02668976 7.4375 9.3125 C7.39431641 8.61060547 7.35113281 7.90871094 7.30664062 7.18554688 C7.2008264 5.45724794 7.09993419 3.7286489 7 2 C4.69 1.67 2.38 1.34 0 1 C0 0.67 0 0.34 0 0 Z " fill="#EAF9F0" transform="translate(218,346)"/>
<path d="M0 0 C3.63 0 7.26 0 11 0 C7.81237635 2.12508244 5.73487777 2.5020163 2 3 C1.67 5.97 1.34 8.94 1 12 C0.67 12 0.34 12 0 12 C0 8.04 0 4.08 0 0 Z " fill="#EDF9F2" transform="translate(274,346)"/>
<path d="M0 0 C0.99 0.33 1.98 0.66 3 1 C3 1.66 3 2.32 3 3 C-1.62 3 -6.24 3 -11 3 C-6.54952481 -0.33785639 -5.32624 -0.38736291 0 0 Z " fill="#D8F5E4" transform="translate(175,263)"/>
<path d="M0 0 C2.17240606 3.25860909 2.23564158 3.82050803 1.8125 7.5 C1.73644531 8.2734375 1.66039062 9.046875 1.58203125 9.84375 C0.9062105 12.34746175 -0.03996044 13.35166485 -2 15 C-2.33 14.34 -2.66 13.68 -3 13 C-2.71125 12.29875 -2.4225 11.5975 -2.125 10.875 C-0.69375085 7.21736329 -0.39699686 3.90380247 0 0 Z " fill="#E4F8EC" transform="translate(322,202)"/>
</svg>
